<svg xmlns="http://www.w3.org/2000/svg" width="1440" height="900" viewBox="0 0 1440 900" role="img" aria-labelledby="title desc">
  <title id="title">Olympy dashboard screenshot</title>
  <desc id="desc">Dark education dashboard with olympiad statistics, event cards and recent results.</desc>
  <defs>
    <linearGradient id="bg" x1="0" y1="0" x2="1" y2="1">
      <stop offset="0" stop-color="#050508"/>
      <stop offset="0.55" stop-color="#090a0f"/>
      <stop offset="1" stop-color="#050508"/>
    </linearGradient>
    <linearGradient id="brand" x1="0" y1="0" x2="1" y2="1">
      <stop offset="0" stop-color="#4f46e5"/>
      <stop offset="0.52" stop-color="#0891b2"/>
      <stop offset="1" stop-color="#10b981"/>
    </linearGradient>
    <linearGradient id="warm" x1="0" y1="0" x2="1" y2="1">
      <stop offset="0" stop-color="#f59e0b"/>
      <stop offset="1" stop-color="#ef4444"/>
    </linearGradient>
    <linearGradient id="cool" x1="0" y1="0" x2="1" y2="1">
      <stop offset="0" stop-color="#22d3ee"/>
      <stop offset="1" stop-color="#6366f1"/>
    </linearGradient>
    <filter id="shadow" x="-20%" y="-20%" width="140%" height="140%">
      <feDropShadow dx="0" dy="24" stdDeviation="24" flood-color="#000000" flood-opacity="0.36"/>
    </filter>
  </defs>
  <rect width="1440" height="900" fill="url(#bg)"/>
  <path d="M0 0h1440v900H0z" fill="none"/>
  <g opacity="0.28">
    <path d="M0 690c160-90 330-112 520-64 232 59 357 37 542-73 143-85 268-116 378-94v441H0z" fill="#0f766e"/>
    <path d="M0 756c194-76 376-75 545 3 189 88 370 83 543-16 123-70 241-86 352-48v205H0z" fill="#172554"/>
  </g>
  <g filter="url(#shadow)">
    <rect x="64" y="58" width="1312" height="784" rx="34" fill="#050508" stroke="#ffffff" stroke-opacity="0.11"/>
    <rect x="64" y="58" width="246" height="784" rx="34" fill="#0d0e12"/>
    <path d="M310 58v784" stroke="#ffffff" stroke-opacity="0.08"/>
    <g transform="translate(96 94)">
      <rect width="56" height="40" rx="12" fill="url(#brand)"/>
      <text x="70" y="27" fill="#fff" font-family="Inter, Arial, sans-serif" font-size="24" font-weight="800">Olympy</text>
    </g>
    <g transform="translate(96 178)" fill="none" font-family="Inter, Arial, sans-serif">
      <rect width="166" height="48" rx="14" fill="#4f46e5" fill-opacity="0.18" stroke="#6366f1" stroke-opacity="0.45"/>
      <circle cx="25" cy="24" r="8" fill="#818cf8"/>
      <text x="48" y="30" fill="#fff" font-size="15" font-weight="700">Asosiy</text>
      <g opacity="0.58">
        <circle cx="25" cy="89" r="8" fill="#22d3ee"/>
        <text x="48" y="95" fill="#dbeafe" font-size="15" font-weight="600">Tadbirlar</text>
        <circle cx="25" cy="153" r="8" fill="#10b981"/>
        <text x="48" y="159" fill="#dbeafe" font-size="15" font-weight="600">Natijalar</text>
        <circle cx="25" cy="217" r="8" fill="#f59e0b"/>
        <text x="48" y="223" fill="#dbeafe" font-size="15" font-weight="600">Reyting</text>
        <circle cx="25" cy="281" r="8" fill="#94a3b8"/>
        <text x="48" y="287" fill="#dbeafe" font-size="15" font-weight="600">Profil</text>
      </g>
    </g>
    <g transform="translate(96 720)">
      <circle cx="24" cy="24" r="24" fill="url(#cool)"/>
      <text x="64" y="20" fill="#fff" font-family="Inter, Arial, sans-serif" font-size="15" font-weight="800">Ali Valiyev</text>
      <text x="64" y="42" fill="#94a3b8" font-family="Inter, Arial, sans-serif" font-size="13">Oquvchi</text>
    </g>
    <g transform="translate(358 96)" font-family="Inter, Arial, sans-serif">
      <text x="0" y="30" fill="#fff" font-size="28" font-weight="850">Salom, Ali!</text>
      <text x="0" y="58" fill="#94a3b8" font-size="15">Bugungi olimpiadalar va natijalar</text>
      <rect x="816" y="0" width="132" height="44" rx="14" fill="#ffffff" fill-opacity="0.07" stroke="#ffffff" stroke-opacity="0.1"/>
      <text id="landing-date" x="840" y="28" fill="#dbeafe" font-size="14" font-weight="700"></text>
    </g>
    <g transform="translate(358 188)" font-family="Inter, Arial, sans-serif">
      <g>
        <rect width="218" height="132" rx="22" fill="#ffffff" fill-opacity="0.07" stroke="#ffffff" stroke-opacity="0.1"/>
        <rect x="24" y="24" width="46" height="46" rx="14" fill="url(#brand)"/>
        <text x="24" y="98" fill="#fff" font-size="30" font-weight="850">87</text>
        <text x="83" y="50" fill="#94a3b8" font-size="14">Ortacha ball</text>
        <text x="83" y="73" fill="#22c55e" font-size="13" font-weight="700">+12%</text>
      </g>
      <g transform="translate(242 0)">
        <rect width="218" height="132" rx="22" fill="#ffffff" fill-opacity="0.07" stroke="#ffffff" stroke-opacity="0.1"/>
        <rect x="24" y="24" width="46" height="46" rx="14" fill="url(#warm)"/>
        <text x="24" y="98" fill="#fff" font-size="30" font-weight="850">#3</text>
        <text x="83" y="50" fill="#94a3b8" font-size="14">Reytingdagi orn</text>
        <text x="83" y="73" fill="#fbbf24" font-size="13" font-weight="700">Top 5%</text>
      </g>
      <g transform="translate(484 0)">
        <rect width="218" height="132" rx="22" fill="#ffffff" fill-opacity="0.07" stroke="#ffffff" stroke-opacity="0.1"/>
        <rect x="24" y="24" width="46" height="46" rx="14" fill="url(#cool)"/>
        <text x="24" y="98" fill="#fff" font-size="30" font-weight="850">12</text>
        <text x="83" y="50" fill="#94a3b8" font-size="14">Tadbirlar</text>
        <text x="83" y="73" fill="#38bdf8" font-size="13" font-weight="700">4 ta faol</text>
      </g>
      <g transform="translate(726 0)">
        <rect width="218" height="132" rx="22" fill="#ffffff" fill-opacity="0.07" stroke="#ffffff" stroke-opacity="0.1"/>
        <rect x="24" y="24" width="46" height="46" rx="14" fill="#10b981"/>
        <text x="24" y="98" fill="#fff" font-size="30" font-weight="850">3</text>
        <text x="83" y="50" fill="#94a3b8" font-size="14">Sertifikatlar</text>
        <text x="83" y="73" fill="#34d399" font-size="13" font-weight="700">Yangi 1 ta</text>
      </g>
    </g>
    <g transform="translate(358 356)" font-family="Inter, Arial, sans-serif">
      <rect width="602" height="306" rx="26" fill="#ffffff" fill-opacity="0.07" stroke="#ffffff" stroke-opacity="0.1"/>
      <text x="28" y="42" fill="#fff" font-size="21" font-weight="850">Faol olimpiadalar</text>
      <text x="28" y="68" fill="#94a3b8" font-size="14">Oquvchilar uchun ochiq tadbirlar</text>
      <g transform="translate(28 96)">
        <rect width="546" height="76" rx="18" fill="#12141a" stroke="#ffffff" stroke-opacity="0.09"/>
        <rect x="18" y="19" width="38" height="38" rx="12" fill="url(#brand)"/>
        <text x="74" y="32" fill="#fff" font-size="16" font-weight="800">Matematika Olimpiadasi</text>
        <text x="74" y="56" fill="#94a3b8" font-size="13">60 daqiqa • 124 ishtirokchi</text>
        <rect x="408" y="22" width="112" height="32" rx="10" fill="#10b981" fill-opacity="0.18"/>
        <text x="438" y="43" fill="#34d399" font-size="13" font-weight="800">Faol</text>
      </g>
      <g transform="translate(28 188)">
        <rect width="546" height="76" rx="18" fill="#12141a" stroke="#ffffff" stroke-opacity="0.09"/>
        <rect x="18" y="19" width="38" height="38" rx="12" fill="url(#cool)"/>
        <text x="74" y="32" fill="#fff" font-size="16" font-weight="800">Informatika Olimpiadasi</text>
        <text x="74" y="56" fill="#94a3b8" font-size="13">90 daqiqa • 201 ishtirokchi</text>
        <rect x="408" y="22" width="112" height="32" rx="10" fill="#64748b" fill-opacity="0.18"/>
        <text x="429" y="43" fill="#cbd5e1" font-size="13" font-weight="800">Tugagan</text>
      </g>
    </g>
    <g transform="translate(988 356)" font-family="Inter, Arial, sans-serif">
      <rect width="328" height="306" rx="26" fill="#ffffff" fill-opacity="0.07" stroke="#ffffff" stroke-opacity="0.1"/>
      <text x="28" y="42" fill="#fff" font-size="21" font-weight="850">Fanlar boyicha</text>
      <g transform="translate(28 78)">
        <text y="19" fill="#dbeafe" font-size="14" font-weight="700">Matematika</text>
        <rect y="34" width="272" height="10" rx="5" fill="#1e293b"/>
        <rect y="34" width="238" height="10" rx="5" fill="#6366f1"/>
        <text x="244" y="20" fill="#fff" font-size="14" font-weight="800">87%</text>
      </g>
      <g transform="translate(28 136)">
        <text y="19" fill="#dbeafe" font-size="14" font-weight="700">Informatika</text>
        <rect y="34" width="272" height="10" rx="5" fill="#1e293b"/>
        <rect y="34" width="222" height="10" rx="5" fill="#22d3ee"/>
        <text x="244" y="20" fill="#fff" font-size="14" font-weight="800">81%</text>
      </g>
      <g transform="translate(28 194)">
        <text y="19" fill="#dbeafe" font-size="14" font-weight="700">Fizika</text>
        <rect y="34" width="272" height="10" rx="5" fill="#1e293b"/>
        <rect y="34" width="196" height="10" rx="5" fill="#10b981"/>
        <text x="244" y="20" fill="#fff" font-size="14" font-weight="800">72%</text>
      </g>
    </g>
    <g transform="translate(358 696)" font-family="Inter, Arial, sans-serif">
      <rect width="958" height="86" rx="22" fill="#ffffff" fill-opacity="0.07" stroke="#ffffff" stroke-opacity="0.1"/>
      <circle cx="42" cy="43" r="22" fill="#10b981"/>
      <text x="78" y="36" fill="#fff" font-size="16" font-weight="800">Yangi sertifikat tayyor</text>
      <text x="78" y="59" fill="#94a3b8" font-size="13">Informatika Olimpiadasi yakunlandi va natijalar hisoblandi</text>
      <rect x="808" y="24" width="118" height="38" rx="13" fill="url(#brand)"/>
      <text x="837" y="48" fill="#fff" font-size="14" font-weight="800">Korish</text>
    </g>
  </g>
</svg>
