<svg xmlns="http://www.w3.org/2000/svg" width="1440" height="900" viewBox="0 0 1440 900" role="img" aria-labelledby="mistakes-title mistakes-desc" class="olympy-shot">
  <title id="mistakes-title">Olympy mistakes screenshot</title>
  <desc id="mistakes-desc">AI Xatolar Sandig'i: yo'l qo'yilgan xatolar ro'yxati va sun'iy intellekt tahlili.</desc>
  <style>
    /* ─── Ranglar bu yerda QATTIQ yozilmagan ──────────────────────────────
       Qiymatlar sahifaning token qatlamidan (src/index.css) keladi. Bu fayl
       DOM ichiga INLINE joylanadi (pages/Landing.jsx), shuning uchun :root
       o'zgaruvchilari shu yerga meros bo'ladi va `data-theme` almashganda
       skrinshot ham o'zi qayta bo'yaladi — ikkinchi (light) nusxa kerak emas.

       var() zaxiralari faqat fayl ALOHIDA ochilganda ishlaydi (to'g'ridan
       to'g'ri brauzerda yoki img tegi orqali) — img tegi tashqi CSS'ni
       ko'rmaydi. Ilova ichida bu zaxiralar hech qachon qo'llanmaydi, shuning
       uchun token qiymatlari o'zgarsa bu fayllarni yangilash SHART EMAS.

       DIQQAT: bu style bloki ichida burchakli qavs ishlatilmaydi. SVG
       markup'i HTML parseri orqali DOM'ga inline joylanadi va u yerda
       style ichidagi burchakli qavs teg deb o'qilib, blokni buzadi.

       Yo'nalish: gradient yo'q, glow yo'q, rangli soya yo'q. Ajratish uchun
       1px chegara va bo'shliq. */
    svg.olympy-shot {
      --ground: rgb(var(--color-ground, 231 228 220));
      --s1: rgb(var(--color-surface-1, 238 236 229));
      --s2: rgb(var(--color-surface-2, 222 219 210));
      --edge: rgb(var(--color-edge, 199 195 184));
      --t2: rgb(var(--color-text-secondary, 98 101 111));
      --accent: rgb(var(--color-accent, 192 54 44));
      --stamp: rgb(var(--color-accent-fill, 192 54 44));
      --on-stamp: rgb(var(--color-on-accent, 251 243 242));
      --pencil: rgb(var(--color-accent-2, 47 93 140));
      --ok: rgb(var(--color-success, 47 107 68));
      --warn: rgb(var(--color-warning, 127 95 48));
      --err: rgb(var(--color-error, 168 62 23));
      color: rgb(var(--color-text-primary, 20 22 28));
      font-family: 'PT Sans', Arial, sans-serif;
    }
    .olympy-shot text { fill: currentColor }
    .olympy-shot .b { font-weight: 700 }
    .olympy-shot .desk { fill: var(--s2) }
    .olympy-shot .page { fill: var(--ground); stroke: var(--edge) }
    .olympy-shot .rail { fill: var(--s1) }
    .olympy-shot .card { fill: var(--s1); stroke: var(--edge) }
    .olympy-shot .well { fill: var(--ground); stroke: var(--edge) }
    .olympy-shot .chip { fill: var(--s2); stroke: var(--edge) }
    .olympy-shot .avatar { fill: var(--s2); stroke: var(--edge) }
    .olympy-shot .track { fill: var(--s2) }
    .olympy-shot .rule { fill: none; stroke: var(--edge) }
    /* Rang sinflari `color` ni ham o'rnatadi: shunda ayni shu elementdagi
       `.icon` ning `stroke: currentColor` i o'sha rangni oladi va matn bilan
       ikonka bir xil bo'yaladi (class="icon ok" kabi juftliklar uchun). */
    .olympy-shot .dim { fill: var(--t2); color: var(--t2) }
    .olympy-shot .ac { fill: var(--accent); color: var(--accent) }
    .olympy-shot .stamp-fill { fill: var(--stamp) }
    .olympy-shot .on-stamp { fill: var(--on-stamp); color: var(--on-stamp) }
    .olympy-shot .pencil { fill: var(--pencil); color: var(--pencil) }
    .olympy-shot .ok { fill: var(--ok); color: var(--ok) }
    .olympy-shot .warn { fill: var(--warn); color: var(--warn) }
    .olympy-shot .err { fill: var(--err); color: var(--err) }
    /* Holat qutilari — ilovaning badge naqshi (12% to'ldirish, 35% chegara). */
    .olympy-shot .ac-box { fill: var(--accent); fill-opacity: .12; stroke: var(--accent); stroke-opacity: .35 }
    .olympy-shot .ok-box { fill: var(--ok); fill-opacity: .12; stroke: var(--ok); stroke-opacity: .35 }
    .olympy-shot .warn-box { fill: var(--warn); fill-opacity: .12; stroke: var(--warn); stroke-opacity: .35 }
    .olympy-shot .pencil-box { fill: var(--pencil); fill-opacity: .12; stroke: var(--pencil); stroke-opacity: .35 }
    /* Ikonkalar — shared.jsx dagi Icon komponenti bilan bir xil Lucide geometriyasi. */
    .olympy-shot .icon { fill: none; stroke: currentColor; stroke-width: 2; stroke-linecap: round; stroke-linejoin: round }
  </style>
  <rect class="desk" width="1440" height="900"/>
  <rect class="page" x="64" y="58" width="1312" height="784" rx="10"/>
  <path class="rail" d="M74 58H310v784H74a10 10 0 0 1-10-10V68a10 10 0 0 1 10-10z"/>
  <path class="rule" d="M310 58v784"/>

  <g transform="translate(96 94)">
    <rect class="stamp-fill" width="40" height="40" rx="4"/>
    <text class="on-stamp b" x="20" y="27" text-anchor="middle" font-size="20">O</text>
    <text class="b" x="54" y="27" font-size="24">Olympy</text>
  </g>

  <g transform="translate(96 164)" font-size="13">
    <rect class="chip" x="-8" y="254" width="174" height="40" rx="4"/>
    <rect class="ac" x="-8" y="264" width="3" height="20"/>
    <g class="icon" transform="translate(14 265) scale(.75)"><path d="M20 13c0 5-3.5 7.5-7.66 8.95a1 1 0 01-.67-.01C7.5 20.5 4 18 4 13V6a1 1 0 011-1c2 0 4.5-1.2 6.24-2.72a1.17 1.17 0 011.52 0C14.51 3.81 17 5 19 5a1 1 0 011 1z"/></g>
    <text class="b" x="46" y="279">Xatolar Sandig'i</text>

    <g class="dim">
      <g class="icon" transform="translate(14 15) scale(.75)"><path d="M15 21v-8a1 1 0 00-1-1h-4a1 1 0 00-1 1v8"/><path d="M3 10a2 2 0 01.709-1.528l7-5.999a2 2 0 012.582 0l7 5.999A2 2 0 0121 10v9a2 2 0 01-2 2H5a2 2 0 01-2-2z"/></g>
      <text x="46" y="29">Asosiy</text>
      <g class="icon" transform="translate(14 65) scale(.75)"><path d="M6 9H4.5a2.5 2.5 0 010-5H6M18 9h1.5a2.5 2.5 0 000-5H18M4 22h16M10 14.66V17c0 .55-.47.98-.97 1.21C7.85 18.75 7 20.24 7 22M14 14.66V17c0 .55.47.98.97 1.21C16.15 18.75 17 20.24 17 22M18 2H6v7a6 6 0 0012 0V2z"/></g>
      <text x="46" y="79">Musobaqalar</text>
      <g class="icon" transform="translate(14 115) scale(.75)"><path d="M4 14a1 1 0 01-.78-1.63l9.9-10.2a.5.5 0 01.86.46l-1.92 6.02A1 1 0 0013 10h7a1 1 0 01.78 1.63l-9.9 10.2a.5.5 0 01-.86-.46l1.92-6.02A1 1 0 0011 14z"/></g>
      <text x="46" y="129">Mashq</text>
      <g class="icon" transform="translate(14 165) scale(.75)"><path d="M3 3v16a2 2 0 002 2h16M18 17V9M13 17V5M8 17v-3"/></g>
      <text x="46" y="179">Natijalar</text>
      <g class="icon" transform="translate(14 215) scale(.75)"><path d="M11.525 2.295a.53.53 0 01.95 0l2.31 4.679a2.123 2.123 0 001.595 1.16l5.166.756a.53.53 0 01.294.904l-3.736 3.638a2.123 2.123 0 00-.611 1.878l.882 5.14a.53.53 0 01-.771.56l-4.618-2.428a2.122 2.122 0 00-1.973 0L6.396 21.01a.53.53 0 01-.77-.56l.881-5.139a2.122 2.122 0 00-.611-1.879L2.16 9.795a.53.53 0 01.294-.906l5.165-.755a2.122 2.122 0 001.597-1.16z"/></g>
      <text x="46" y="229">Reyting</text>
      <g class="icon" transform="translate(14 315) scale(.75)"><path d="M12.586 2.586A2 2 0 0011.172 2H4a2 2 0 00-2 2v7.172a2 2 0 00.586 1.414l8.704 8.704a2.426 2.426 0 003.42 0l6.58-6.58a2.426 2.426 0 000-3.42z"/><circle cx="7.5" cy="7.5" r="1.5"/></g>
      <text x="46" y="329">Do'kon</text>
      <g class="icon" transform="translate(14 365) scale(.75)"><path d="M19 21v-2a4 4 0 00-4-4H9a4 4 0 00-4 4v2"/><circle cx="12" cy="7" r="4"/></g>
      <text x="46" y="379">Profil</text>
    </g>
  </g>

  <g transform="translate(96 720)">
    <circle class="avatar" cx="24" cy="24" r="24"/>
    <text class="b" x="24" y="30" text-anchor="middle" font-size="15">AV</text>
    <text class="b" x="64" y="20" font-size="15">Ali Valiyev</text>
    <text class="dim" x="64" y="42" font-size="13">O'quvchi</text>
  </g>

  <g transform="translate(358 96)">
    <text class="b" x="0" y="30" font-size="28">AI Xatolar Sandig'i</text>
    <text class="dim" x="0" y="58" font-size="15">Olimpiada va testlarda yo'l qo'yilgan xatolar hamda sun'iy intellekt tahlillari</text>
  </g>

  <g transform="translate(358 188)">
    <!-- Xatolar ro'yxati -->
    <g>
      <rect class="card" width="602" height="380" rx="8"/>
      <text class="b" x="28" y="42" font-size="21">Oxirgi xatolar ro'yxati</text>
      <g transform="translate(28 78)">
        <rect class="well" width="546" height="76" rx="6"/>
        <text class="b" x="20" y="32" font-size="15">Matematika • Algebraik ifodalar</text>
        <text class="dim" x="20" y="56" font-size="13">Noto'g'ri javob: C • To'g'ri javob: A</text>
        <rect class="pencil-box" x="420" y="22" width="106" height="32" rx="4"/>
        <text class="pencil b" x="473" y="43" text-anchor="middle" font-size="13">Yechim (AI)</text>
      </g>
      <g transform="translate(28 170)">
        <rect class="well" width="546" height="76" rx="6"/>
        <text class="b" x="20" y="32" font-size="15">Informatika • Python massivlari</text>
        <text class="dim" x="20" y="56" font-size="13">Noto'g'ri javob: B • To'g'ri javob: D</text>
        <rect class="pencil-box" x="420" y="22" width="106" height="32" rx="4"/>
        <text class="pencil b" x="473" y="43" text-anchor="middle" font-size="13">Yechim (AI)</text>
      </g>
      <g transform="translate(28 262)">
        <rect class="well" width="546" height="76" rx="6"/>
        <text class="b" x="20" y="32" font-size="15">Fizika • Nyuton 2-qonuni</text>
        <text class="dim" x="20" y="56" font-size="13">Noto'g'ri javob: A • To'g'ri javob: C</text>
        <rect class="pencil-box" x="420" y="22" width="106" height="32" rx="4"/>
        <text class="pencil b" x="473" y="43" text-anchor="middle" font-size="13">Yechim (AI)</text>
      </g>
    </g>

    <!-- AI tavsiyasi -->
    <g transform="translate(630 0)">
      <rect class="pencil-box" width="328" height="380" rx="8"/>
      <g class="icon pencil" transform="translate(28 22) scale(.9167)"><path d="M9.937 15.5A2 2 0 008.5 14.063l-6.135-1.582a.5.5 0 010-.962L8.5 9.936A2 2 0 009.937 8.5l1.582-6.135a.5.5 0 01.963 0L14.063 8.5A2 2 0 0015.5 9.937l6.135 1.581a.5.5 0 010 .964L15.5 14.063a2 2 0 00-1.437 1.437l-1.582 6.135a.5.5 0 01-.963 0z"/><path d="M20 3v4M22 5h-4M4 17v2M5 18H3"/></g>
      <text class="b" x="58" y="38" font-size="20">Gemini AI Tavsiyasi</text>
      <text class="pencil b" x="28" y="86" font-size="14">Tahlil natijasi:</text>
      <text class="dim" x="28" y="116" font-size="13">Sizda algebraik amallar va fizikadan</text>
      <text class="dim" x="28" y="136" font-size="13">dinamika bo'limlarida zaiflik bor.</text>
      <text class="pencil b" x="28" y="184" font-size="14">Tavsiya etilgan reja:</text>
      <text class="dim" x="28" y="214" font-size="13">1. Mashq bo'limida Algebra testini</text>
      <text class="dim" x="28" y="234" font-size="13">kuniga 10 tadan yeching.</text>
      <text class="dim" x="28" y="254" font-size="13">2. Har bir xato savolning izohini</text>
      <text class="dim" x="28" y="274" font-size="13">AI tahlili orqali ko'rib chiqing.</text>
      <path class="rule" d="M28 300h272"/>
      <text class="ok b" x="28" y="332" font-size="15">O'sish prognozi: +15%</text>
    </g>
  </g>

  <!-- Pastki maslahat -->
  <g transform="translate(358 596)">
    <rect class="card" width="958" height="110" rx="8"/>
    <rect class="ok-box" x="24" y="24" width="62" height="62" rx="6"/>
    <g class="icon ok" transform="translate(42 42) scale(1.1667)"><path d="M9.937 15.5A2 2 0 008.5 14.063l-6.135-1.582a.5.5 0 010-.962L8.5 9.936A2 2 0 009.937 8.5l1.582-6.135a.5.5 0 01.963 0L14.063 8.5A2 2 0 0015.5 9.937l6.135 1.581a.5.5 0 010 .964L15.5 14.063a2 2 0 00-1.437 1.437l-1.582 6.135a.5.5 0 01-.963 0z"/><path d="M20 3v4M22 5h-4M4 17v2M5 18H3"/></g>
    <text class="b" x="110" y="44" font-size="18">Qayta yechish orqali natijani yaxshilang</text>
    <text class="dim" x="110" y="70" font-size="14">Siz bu xatolar ustida ishlab, ularni qayta yechish imkoniyatiga egasiz. Bu bilimingizni sezilarli oshiradi.</text>
  </g>
</svg>
