<svg xmlns="http://www.w3.org/2000/svg" width="1440" height="900" viewBox="0 0 1440 900" role="img" aria-labelledby="practice-title practice-desc" class="olympy-shot">
  <title id="practice-title">Olympy practice screenshot</title>
  <desc id="practice-desc">Fanlar bo'yicha mustaqil mashq paneli: progress kartalari, faollik (streak) va mashqlar tarixi.</desc>
  <style>
    /* ─── Ranglar bu yerda QATTIQ yozilmagan ──────────────────────────────
       Qiymatlar sahifaning token qatlamidan (src/index.css) keladi. Bu fayl
       DOM ichiga INLINE joylanadi (pages/Landing.jsx), shuning uchun :root
       o'zgaruvchilari shu yerga meros bo'ladi va `data-theme` almashganda
       skrinshot ham o'zi qayta bo'yaladi — ikkinchi (light) nusxa kerak emas.

       var() zaxiralari faqat fayl ALOHIDA ochilganda ishlaydi (to'g'ridan
       to'g'ri brauzerda yoki img tegi orqali) — img tegi tashqi CSS'ni
       ko'rmaydi. Ilova ichida bu zaxiralar hech qachon qo'llanmaydi, shuning
       uchun token qiymatlari o'zgarsa bu fayllarni yangilash SHART EMAS.

       DIQQAT: bu style bloki ichida burchakli qavs ishlatilmaydi. SVG
       markup'i HTML parseri orqali DOM'ga inline joylanadi va u yerda
       style ichidagi burchakli qavs teg deb o'qilib, blokni buzadi.

       Yo'nalish: gradient yo'q, glow yo'q, rangli soya yo'q. Ajratish uchun
       1px chegara va bo'shliq. */
    svg.olympy-shot {
      --ground: rgb(var(--color-ground, 231 228 220));
      --s1: rgb(var(--color-surface-1, 238 236 229));
      --s2: rgb(var(--color-surface-2, 222 219 210));
      --edge: rgb(var(--color-edge, 199 195 184));
      --t2: rgb(var(--color-text-secondary, 98 101 111));
      --accent: rgb(var(--color-accent, 192 54 44));
      --stamp: rgb(var(--color-accent-fill, 192 54 44));
      --on-stamp: rgb(var(--color-on-accent, 251 243 242));
      --pencil: rgb(var(--color-accent-2, 47 93 140));
      --ok: rgb(var(--color-success, 47 107 68));
      --warn: rgb(var(--color-warning, 127 95 48));
      --err: rgb(var(--color-error, 168 62 23));
      color: rgb(var(--color-text-primary, 20 22 28));
      font-family: 'PT Sans', Arial, sans-serif;
    }
    .olympy-shot text { fill: currentColor }
    .olympy-shot .b { font-weight: 700 }
    .olympy-shot .desk { fill: var(--s2) }
    .olympy-shot .page { fill: var(--ground); stroke: var(--edge) }
    .olympy-shot .rail { fill: var(--s1) }
    .olympy-shot .card { fill: var(--s1); stroke: var(--edge) }
    .olympy-shot .well { fill: var(--ground); stroke: var(--edge) }
    .olympy-shot .chip { fill: var(--s2); stroke: var(--edge) }
    .olympy-shot .avatar { fill: var(--s2); stroke: var(--edge) }
    .olympy-shot .track { fill: var(--s2) }
    .olympy-shot .rule { fill: none; stroke: var(--edge) }
    /* Rang sinflari `color` ni ham o'rnatadi: shunda ayni shu elementdagi
       `.icon` ning `stroke: currentColor` i o'sha rangni oladi va matn bilan
       ikonka bir xil bo'yaladi (class="icon ok" kabi juftliklar uchun). */
    .olympy-shot .dim { fill: var(--t2); color: var(--t2) }
    .olympy-shot .ac { fill: var(--accent); color: var(--accent) }
    .olympy-shot .stamp-fill { fill: var(--stamp) }
    .olympy-shot .on-stamp { fill: var(--on-stamp); color: var(--on-stamp) }
    .olympy-shot .pencil { fill: var(--pencil); color: var(--pencil) }
    .olympy-shot .ok { fill: var(--ok); color: var(--ok) }
    .olympy-shot .warn { fill: var(--warn); color: var(--warn) }
    .olympy-shot .err { fill: var(--err); color: var(--err) }
    /* Holat qutilari — ilovaning badge naqshi (12% to'ldirish, 35% chegara). */
    .olympy-shot .ac-box { fill: var(--accent); fill-opacity: .12; stroke: var(--accent); stroke-opacity: .35 }
    .olympy-shot .ok-box { fill: var(--ok); fill-opacity: .12; stroke: var(--ok); stroke-opacity: .35 }
    .olympy-shot .warn-box { fill: var(--warn); fill-opacity: .12; stroke: var(--warn); stroke-opacity: .35 }
    .olympy-shot .pencil-box { fill: var(--pencil); fill-opacity: .12; stroke: var(--pencil); stroke-opacity: .35 }
    /* Ikonkalar — shared.jsx dagi Icon komponenti bilan bir xil Lucide geometriyasi. */
    .olympy-shot .icon { fill: none; stroke: currentColor; stroke-width: 2; stroke-linecap: round; stroke-linejoin: round }
  </style>
  <rect class="desk" width="1440" height="900"/>
  <rect class="page" x="64" y="58" width="1312" height="784" rx="10"/>
  <path class="rail" d="M74 58H310v784H74a10 10 0 0 1-10-10V68a10 10 0 0 1 10-10z"/>
  <path class="rule" d="M310 58v784"/>

  <g transform="translate(96 94)">
    <rect class="stamp-fill" width="40" height="40" rx="4"/>
    <text class="on-stamp b" x="20" y="27" text-anchor="middle" font-size="20">O</text>
    <text class="b" x="54" y="27" font-size="24">Olympy</text>
  </g>

  <g transform="translate(96 164)" font-size="13">
    <rect class="chip" x="-8" y="104" width="174" height="40" rx="4"/>
    <rect class="ac" x="-8" y="114" width="3" height="20"/>
    <g class="icon" transform="translate(14 115) scale(.75)"><path d="M4 14a1 1 0 01-.78-1.63l9.9-10.2a.5.5 0 01.86.46l-1.92 6.02A1 1 0 0013 10h7a1 1 0 01.78 1.63l-9.9 10.2a.5.5 0 01-.86-.46l1.92-6.02A1 1 0 0011 14z"/></g>
    <text class="b" x="46" y="129">Mashq</text>

    <g class="dim">
      <g class="icon" transform="translate(14 15) scale(.75)"><path d="M15 21v-8a1 1 0 00-1-1h-4a1 1 0 00-1 1v8"/><path d="M3 10a2 2 0 01.709-1.528l7-5.999a2 2 0 012.582 0l7 5.999A2 2 0 0121 10v9a2 2 0 01-2 2H5a2 2 0 01-2-2z"/></g>
      <text x="46" y="29">Asosiy</text>
      <g class="icon" transform="translate(14 65) scale(.75)"><path d="M6 9H4.5a2.5 2.5 0 010-5H6M18 9h1.5a2.5 2.5 0 000-5H18M4 22h16M10 14.66V17c0 .55-.47.98-.97 1.21C7.85 18.75 7 20.24 7 22M14 14.66V17c0 .55.47.98.97 1.21C16.15 18.75 17 20.24 17 22M18 2H6v7a6 6 0 0012 0V2z"/></g>
      <text x="46" y="79">Musobaqalar</text>
      <g class="icon" transform="translate(14 165) scale(.75)"><path d="M3 3v16a2 2 0 002 2h16M18 17V9M13 17V5M8 17v-3"/></g>
      <text x="46" y="179">Natijalar</text>
      <g class="icon" transform="translate(14 215) scale(.75)"><path d="M11.525 2.295a.53.53 0 01.95 0l2.31 4.679a2.123 2.123 0 001.595 1.16l5.166.756a.53.53 0 01.294.904l-3.736 3.638a2.123 2.123 0 00-.611 1.878l.882 5.14a.53.53 0 01-.771.56l-4.618-2.428a2.122 2.122 0 00-1.973 0L6.396 21.01a.53.53 0 01-.77-.56l.881-5.139a2.122 2.122 0 00-.611-1.879L2.16 9.795a.53.53 0 01.294-.906l5.165-.755a2.122 2.122 0 001.597-1.16z"/></g>
      <text x="46" y="229">Reyting</text>
      <g class="icon" transform="translate(14 265) scale(.75)"><path d="M20 13c0 5-3.5 7.5-7.66 8.95a1 1 0 01-.67-.01C7.5 20.5 4 18 4 13V6a1 1 0 011-1c2 0 4.5-1.2 6.24-2.72a1.17 1.17 0 011.52 0C14.51 3.81 17 5 19 5a1 1 0 011 1z"/></g>
      <text x="46" y="279">Xatolar Sandig'i</text>
      <g class="icon" transform="translate(14 315) scale(.75)"><path d="M12.586 2.586A2 2 0 0011.172 2H4a2 2 0 00-2 2v7.172a2 2 0 00.586 1.414l8.704 8.704a2.426 2.426 0 003.42 0l6.58-6.58a2.426 2.426 0 000-3.42z"/><circle cx="7.5" cy="7.5" r="1.5"/></g>
      <text x="46" y="329">Do'kon</text>
      <g class="icon" transform="translate(14 365) scale(.75)"><path d="M19 21v-2a4 4 0 00-4-4H9a4 4 0 00-4 4v2"/><circle cx="12" cy="7" r="4"/></g>
      <text x="46" y="379">Profil</text>
    </g>
  </g>

  <g transform="translate(96 720)">
    <circle class="avatar" cx="24" cy="24" r="24"/>
    <text class="b" x="24" y="30" text-anchor="middle" font-size="15">AV</text>
    <text class="b" x="64" y="20" font-size="15">Ali Valiyev</text>
    <text class="dim" x="64" y="42" font-size="13">O'quvchi</text>
  </g>

  <g transform="translate(358 96)">
    <text class="b" x="0" y="30" font-size="28">Mustaqil Mashqlar</text>
    <text class="dim" x="0" y="58" font-size="15">Har bir fan bo'yicha mustaqil testlar yeching va o'z bilimingizni boyiting</text>
  </g>

  <!-- Fan kartalari -->
  <g transform="translate(358 188)">
    <g>
      <rect class="card" width="298" height="200" rx="8"/>
      <rect class="chip" x="24" y="24" width="48" height="48" rx="6"/>
      <g class="icon ac" transform="translate(36 36) scale(1)"><rect x="3" y="3" width="7" height="7" rx="1"/><rect x="14" y="3" width="7" height="7" rx="1"/><rect x="14" y="14" width="7" height="7" rx="1"/><rect x="3" y="14" width="7" height="7" rx="1"/></g>
      <text class="b" x="88" y="44" font-size="20">Matematika</text>
      <text class="dim" x="88" y="68" font-size="13">12 ta mavzu • 240 ta savol</text>
      <text class="dim" x="24" y="118" font-size="13">Progress</text>
      <rect class="track" x="24" y="132" width="250" height="10" rx="5"/>
      <rect class="ac" x="24" y="132" width="160" height="10" rx="5"/>
      <text class="b" x="24" y="174" font-size="13">64%</text>
      <rect class="chip" x="180" y="152" width="94" height="32" rx="4"/>
      <text class="ac b" x="227" y="173" text-anchor="middle" font-size="13">Kirish</text>
    </g>
    <g transform="translate(322 0)">
      <rect class="card" width="298" height="200" rx="8"/>
      <rect class="chip" x="24" y="24" width="48" height="48" rx="6"/>
      <g class="icon warn" transform="translate(36 36) scale(1)"><path d="M4 14a1 1 0 01-.78-1.63l9.9-10.2a.5.5 0 01.86.46l-1.92 6.02A1 1 0 0013 10h7a1 1 0 01.78 1.63l-9.9 10.2a.5.5 0 01-.86-.46l1.92-6.02A1 1 0 0011 14z"/></g>
      <text class="b" x="88" y="44" font-size="20">Fizika</text>
      <text class="dim" x="88" y="68" font-size="13">8 ta mavzu • 160 ta savol</text>
      <text class="dim" x="24" y="118" font-size="13">Progress</text>
      <rect class="track" x="24" y="132" width="250" height="10" rx="5"/>
      <rect class="warn" x="24" y="132" width="100" height="10" rx="5"/>
      <text class="b" x="24" y="174" font-size="13">40%</text>
      <rect class="chip" x="180" y="152" width="94" height="32" rx="4"/>
      <text class="ac b" x="227" y="173" text-anchor="middle" font-size="13">Kirish</text>
    </g>
    <g transform="translate(644 0)">
      <rect class="card" width="298" height="200" rx="8"/>
      <rect class="chip" x="24" y="24" width="48" height="48" rx="6"/>
      <g class="icon pencil" transform="translate(36 36) scale(1)"><path d="M8 18l-6-6 6-6M16 6l6 6-6 6"/></g>
      <text class="b" x="88" y="44" font-size="20">Informatika</text>
      <text class="dim" x="88" y="68" font-size="13">10 ta mavzu • 200 ta savol</text>
      <text class="dim" x="24" y="118" font-size="13">Progress</text>
      <rect class="track" x="24" y="132" width="250" height="10" rx="5"/>
      <rect class="pencil" x="24" y="132" width="200" height="10" rx="5"/>
      <text class="b" x="24" y="174" font-size="13">80%</text>
      <rect class="chip" x="180" y="152" width="94" height="32" rx="4"/>
      <text class="ac b" x="227" y="173" text-anchor="middle" font-size="13">Kirish</text>
    </g>
  </g>

  <!-- Faollik (streak) -->
  <g transform="translate(358 412)">
    <rect class="card" width="958" height="132" rx="8"/>
    <rect class="warn-box" x="24" y="24" width="84" height="84" rx="8"/>
    <g class="icon warn" transform="translate(46 46) scale(1.6667)"><path d="M4 14a1 1 0 01-.78-1.63l9.9-10.2a.5.5 0 01.86.46l-1.92 6.02A1 1 0 0013 10h7a1 1 0 01.78 1.63l-9.9 10.2a.5.5 0 01-.86-.46l1.92-6.02A1 1 0 0011 14z"/></g>
    <text class="b" x="132" y="58" font-size="22">5 kunlik faollik (Streak)!</text>
    <text class="dim" x="132" y="86" font-size="15">Har kuni mashq qiling va faollik darajangizni oshiring. Bajarilgan mashqlar sizga Olympy Coins keltiradi!</text>
  </g>

  <!-- Mashqlar tarixi -->
  <g transform="translate(358 568)">
    <rect class="card" width="958" height="212" rx="8"/>
    <text class="b" x="28" y="42" font-size="21">Oxirgi mashqlar tarixi</text>
    <text class="dim" x="28" y="68" font-size="14">Muvaffaqiyatli topshirilgan mustaqil mashg'ulotlar</text>
    <g transform="translate(28 96)">
      <rect class="well" width="902" height="76" rx="6"/>
      <rect class="chip" x="18" y="19" width="38" height="38" rx="4"/>
      <g class="icon ac" transform="translate(27 28) scale(.8333)"><rect x="3" y="3" width="7" height="7" rx="1"/><rect x="14" y="3" width="7" height="7" rx="1"/><rect x="14" y="14" width="7" height="7" rx="1"/><rect x="3" y="14" width="7" height="7" rx="1"/></g>
      <text class="b" x="74" y="32" font-size="16">Matematika • Chiziqli tenglamalar</text>
      <text class="dim" x="74" y="56" font-size="13">15 savoldan 12 tasi to'g'ri • +40 Coins • Bugun</text>
      <rect class="ok-box" x="760" y="22" width="124" height="32" rx="4"/>
      <text class="ok b" x="822" y="43" text-anchor="middle" font-size="13">Tugallandi</text>
    </g>
  </g>
</svg>
