<svg xmlns="http://www.w3.org/2000/svg" width="1440" height="900" viewBox="0 0 1440 900" role="img" aria-labelledby="title desc">
  <title id="title">Olympy practice screenshot</title>
  <desc id="desc">Dark education practice dashboard with subject cards and daily streak.</desc>
  <defs>
    <linearGradient id="bg" x1="0" y1="0" x2="1" y2="1">
      <stop offset="0" stop-color="#050508"/>
      <stop offset="0.55" stop-color="#090a0f"/>
      <stop offset="1" stop-color="#050508"/>
    </linearGradient>
    <linearGradient id="brand" x1="0" y1="0" x2="1" y2="1">
      <stop offset="0" stop-color="#4f46e5"/>
      <stop offset="0.52" stop-color="#0891b2"/>
      <stop offset="1" stop-color="#10b981"/>
    </linearGradient>
    <linearGradient id="warm" x1="0" y1="0" x2="1" y2="1">
      <stop offset="0" stop-color="#f59e0b"/>
      <stop offset="1" stop-color="#ef4444"/>
    </linearGradient>
    <linearGradient id="cool" x1="0" y1="0" x2="1" y2="1">
      <stop offset="0" stop-color="#22d3ee"/>
      <stop offset="1" stop-color="#6366f1"/>
    </linearGradient>
    <filter id="shadow" x="-20%" y="-20%" width="140%" height="140%">
      <feDropShadow dx="0" dy="24" stdDeviation="24" flood-color="#000000" flood-opacity="0.36"/>
    </filter>
  </defs>
  <rect width="1440" height="900" fill="url(#bg)"/>
  <path d="M0 0h1440v900H0z" fill="none"/>
  <g opacity="0.28">
    <path d="M0 690c160-90 330-112 520-64 232 59 357 37 542-73 143-85 268-116 378-94v441H0z" fill="#0f766e"/>
    <path d="M0 756c194-76 376-75 545 3 189 88 370 83 543-16 123-70 241-86 352-48v205H0z" fill="#172554"/>
  </g>
  <g filter="url(#shadow)">
    <rect x="64" y="58" width="1312" height="784" rx="34" fill="#050508" stroke="#ffffff" stroke-opacity="0.11"/>
    <rect x="64" y="58" width="246" height="784" rx="34" fill="#0d0e12"/>
    <path d="M310 58v784" stroke="#ffffff" stroke-opacity="0.08"/>
    <g transform="translate(96 94)">
      <rect width="56" height="40" rx="12" fill="url(#brand)"/>
      <text x="70" y="27" fill="#fff" font-family="Inter, Arial, sans-serif" font-size="24" font-weight="800">Olympy</text>
    </g>
    <g transform="translate(96 164)" fill="none" font-family="Inter, Arial, sans-serif">
      <rect width="166" height="40" rx="12" fill="#4f46e5" fill-opacity="0.18" stroke="#6366f1" stroke-opacity="0.45" y="104"/>
      <g opacity="0.65">
        <circle cx="25" cy="24" r="7" fill="#818cf8"/>
        <text x="46" y="29" fill="#dbeafe" font-size="13" font-weight="600">Asosiy</text>
        <circle cx="25" cy="74" r="7" fill="#22d3ee"/>
        <text x="46" y="79" fill="#dbeafe" font-size="13" font-weight="600">Tadbirlar</text>
      </g>
      <circle cx="25" cy="124" r="7" fill="#a855f7"/>
      <text x="46" y="129" fill="#fff" font-size="13" font-weight="700">Mashq</text>
      <g opacity="0.65">
        <circle cx="25" cy="174" r="7" fill="#10b981"/>
        <text x="46" y="179" fill="#dbeafe" font-size="13" font-weight="600">Natijalar</text>
        <circle cx="25" cy="224" r="7" fill="#f59e0b"/>
        <text x="46" y="229" fill="#dbeafe" font-size="13" font-weight="600">Reyting</text>
        <circle cx="25" cy="274" r="7" fill="#ef4444"/>
        <text x="46" y="279" fill="#dbeafe" font-size="13" font-weight="600">Xatolar Sandig'i</text>
        <circle cx="25" cy="324" r="7" fill="#fb7185"/>
        <text x="46" y="329" fill="#dbeafe" font-size="13" font-weight="600">Do'kon</text>
        <circle cx="25" cy="374" r="7" fill="#94a3b8"/>
        <text x="46" y="379" fill="#dbeafe" font-size="13" font-weight="600">Profil</text>
      </g>
    </g>
    <g transform="translate(96 720)">
      <circle cx="24" cy="24" r="24" fill="url(#cool)"/>
      <text x="64" y="20" fill="#fff" font-family="Inter, Arial, sans-serif" font-size="15" font-weight="800">Ali Valiyev</text>
      <text x="64" y="42" fill="#94a3b8" font-family="Inter, Arial, sans-serif" font-size="13">Oquvchi</text>
    </g>
    <g transform="translate(358 96)" font-family="Inter, Arial, sans-serif">
      <text x="0" y="30" fill="#fff" font-size="28" font-weight="850">Mustaqil Mashqlar</text>
      <text x="0" y="58" fill="#94a3b8" font-size="15">Har bir fan bo'yicha mustaqil testlar yeching va o'z bilimingizni boyiting</text>
    </g>
    <g transform="translate(358 188)" font-family="Inter, Arial, sans-serif">
      <g>
        <rect width="298" height="200" rx="24" fill="#ffffff" fill-opacity="0.07" stroke="#ffffff" stroke-opacity="0.1"/>
        <rect x="24" y="24" width="48" height="48" rx="14" fill="url(#brand)"/>
        <text x="88" y="44" fill="#fff" font-size="20" font-weight="850">Matematika</text>
        <text x="88" y="68" fill="#94a3b8" font-size="13">12 ta mavzu • 240 ta savol</text>
        <text x="24" y="118" fill="#94a3b8" font-size="13">Progress</text>
        <rect x="24" y="132" width="250" height="10" rx="5" fill="#1e293b"/>
        <rect x="24" y="132" width="160" height="10" rx="5" fill="#6366f1"/>
        <text x="24" y="174" fill="#cbd5e1" font-size="13" font-weight="700">64%</text>
        <rect x="180" y="152" width="94" height="32" rx="10" fill="#6366f1"/>
        <text x="202" y="172" fill="#fff" font-size="13" font-weight="800">Kirish</text>
      </g>
      <g transform="translate(322 0)">
        <rect width="298" height="200" rx="24" fill="#ffffff" fill-opacity="0.07" stroke="#ffffff" stroke-opacity="0.1"/>
        <rect x="24" y="24" width="48" height="48" rx="14" fill="url(#warm)"/>
        <text x="88" y="44" fill="#fff" font-size="20" font-weight="850">Fizika</text>
        <text x="88" y="68" fill="#94a3b8" font-size="13">8 ta mavzu • 160 ta savol</text>
        <text x="24" y="118" fill="#94a3b8" font-size="13">Progress</text>
        <rect x="24" y="132" width="250" height="10" rx="5" fill="#1e293b"/>
        <rect x="24" y="132" width="100" height="10" rx="5" fill="#f59e0b"/>
        <text x="24" y="174" fill="#cbd5e1" font-size="13" font-weight="700">40%</text>
        <rect x="180" y="152" width="94" height="32" rx="10" fill="#f59e0b"/>
        <text x="202" y="172" fill="#fff" font-size="13" font-weight="800">Kirish</text>
      </g>
      <g transform="translate(644 0)">
        <rect width="298" height="200" rx="24" fill="#ffffff" fill-opacity="0.07" stroke="#ffffff" stroke-opacity="0.1"/>
        <rect x="24" y="24" width="48" height="48" rx="14" fill="url(#cool)"/>
        <text x="88" y="44" fill="#fff" font-size="20" font-weight="850">Informatika</text>
        <text x="88" y="68" fill="#94a3b8" font-size="13">10 ta mavzu • 200 ta savol</text>
        <text x="24" y="118" fill="#94a3b8" font-size="13">Progress</text>
        <rect x="24" y="132" width="250" height="10" rx="5" fill="#1e293b"/>
        <rect x="24" y="132" width="200" height="10" rx="5" fill="#22d3ee"/>
        <text x="24" y="174" fill="#cbd5e1" font-size="13" font-weight="700">80%</text>
        <rect x="180" y="152" width="94" height="32" rx="10" fill="#22d3ee"/>
        <text x="202" y="172" fill="#fff" font-size="13" font-weight="800">Kirish</text>
      </g>
    </g>
    <g transform="translate(358 412)" font-family="Inter, Arial, sans-serif">
      <rect width="958" height="132" rx="26" fill="#ffffff" fill-opacity="0.07" stroke="#ffffff" stroke-opacity="0.1"/>
      <rect x="24" y="24" width="84" height="84" rx="22" fill="#f59e0b" fill-opacity="0.13" stroke="#f59e0b" stroke-opacity="0.25"/>
      <text x="66" y="78" text-anchor="middle" fill="#f59e0b" font-size="44">🔥</text>
      <text x="132" y="58" fill="#fff" font-size="22" font-weight="850">5 kunlik faollik (Streak)!</text>
      <text x="132" y="86" fill="#94a3b8" font-size="15">Har kuni mashq qiling va faollik darajangizni oshiring. Bajarilgan mashqlar sizga Olympy Coins keltiradi!</text>
    </g>
    <g transform="translate(358 568)" font-family="Inter, Arial, sans-serif">
      <rect width="958" height="212" rx="26" fill="#ffffff" fill-opacity="0.07" stroke="#ffffff" stroke-opacity="0.1"/>
      <text x="28" y="42" fill="#fff" font-size="21" font-weight="850">Oxirgi mashqlar tarixi</text>
      <text x="28" y="68" fill="#94a3b8" font-size="14">Muvaffaqiyatli topshirilgan mustaqil mashg'ulotlar</text>
      <g transform="translate(28 96)">
        <rect width="902" height="76" rx="18" fill="#12141a" stroke="#ffffff" stroke-opacity="0.09"/>
        <rect x="18" y="19" width="38" height="38" rx="12" fill="url(#brand)"/>
        <text x="74" y="32" fill="#fff" font-size="16" font-weight="800">Matematika • Chiziqli tenglamalar</text>
        <text x="74" y="56" fill="#94a3b8" font-size="13">15 savoldan 12 tasi to'g'ri • +40 Coins • Bugun</text>
        <rect x="760" y="22" width="124" height="32" rx="10" fill="#10b981" fill-opacity="0.18"/>
        <text x="786" y="43" fill="#34d399" font-size="13" font-weight="800">Tugallandi</text>
      </g>
    </g>
  </g>
</svg>
