<svg xmlns="http://www.w3.org/2000/svg" width="1440" height="900" viewBox="0 0 1440 900" role="img" aria-labelledby="title desc">
  <title id="title">Olympy store screenshot</title>
  <desc id="desc">Dark education reward store dashboard showing items and user balance.</desc>
  <defs>
    <linearGradient id="bg" x1="0" y1="0" x2="1" y2="1">
      <stop offset="0" stop-color="#050508"/>
      <stop offset="0.55" stop-color="#090a0f"/>
      <stop offset="1" stop-color="#050508"/>
    </linearGradient>
    <linearGradient id="brand" x1="0" y1="0" x2="1" y2="1">
      <stop offset="0" stop-color="#4f46e5"/>
      <stop offset="0.52" stop-color="#0891b2"/>
      <stop offset="1" stop-color="#10b981"/>
    </linearGradient>
    <linearGradient id="warm" x1="0" y1="0" x2="1" y2="1">
      <stop offset="0" stop-color="#f59e0b"/>
      <stop offset="1" stop-color="#ef4444"/>
    </linearGradient>
    <linearGradient id="cool" x1="0" y1="0" x2="1" y2="1">
      <stop offset="0" stop-color="#22d3ee"/>
      <stop offset="1" stop-color="#6366f1"/>
    </linearGradient>
    <filter id="shadow" x="-20%" y="-20%" width="140%" height="140%">
      <feDropShadow dx="0" dy="24" stdDeviation="24" flood-color="#000000" flood-opacity="0.36"/>
    </filter>
  </defs>
  <rect width="1440" height="900" fill="url(#bg)"/>
  <path d="M0 0h1440v900H0z" fill="none"/>
  <g opacity="0.28">
    <path d="M0 690c160-90 330-112 520-64 232 59 357 37 542-73 143-85 268-116 378-94v441H0z" fill="#0f766e"/>
    <path d="M0 756c194-76 376-75 545 3 189 88 370 83 543-16 123-70 241-86 352-48v205H0z" fill="#172554"/>
  </g>
  <g filter="url(#shadow)">
    <rect x="64" y="58" width="1312" height="784" rx="34" fill="#050508" stroke="#ffffff" stroke-opacity="0.11"/>
    <rect x="64" y="58" width="246" height="784" rx="34" fill="#0d0e12"/>
    <path d="M310 58v784" stroke="#ffffff" stroke-opacity="0.08"/>
    <g transform="translate(96 94)">
      <rect width="56" height="40" rx="12" fill="url(#brand)"/>
      <text x="70" y="27" fill="#fff" font-family="Inter, Arial, sans-serif" font-size="24" font-weight="800">Olympy</text>
    </g>
    <g transform="translate(96 164)" fill="none" font-family="Inter, Arial, sans-serif">
      <rect width="166" height="40" rx="12" fill="#4f46e5" fill-opacity="0.18" stroke="#6366f1" stroke-opacity="0.45" y="304"/>
      <g opacity="0.65">
        <circle cx="25" cy="24" r="7" fill="#818cf8"/>
        <text x="46" y="29" fill="#dbeafe" font-size="13" font-weight="600">Asosiy</text>
        <circle cx="25" cy="74" r="7" fill="#22d3ee"/>
        <text x="46" y="79" fill="#dbeafe" font-size="13" font-weight="600">Tadbirlar</text>
        <circle cx="25" cy="124" r="7" fill="#a855f7"/>
        <text x="46" y="129" fill="#dbeafe" font-size="13" font-weight="600">Mashq</text>
        <circle cx="25" cy="174" r="7" fill="#10b981"/>
        <text x="46" y="179" fill="#dbeafe" font-size="13" font-weight="600">Natijalar</text>
        <circle cx="25" cy="224" r="7" fill="#f59e0b"/>
        <text x="46" y="229" fill="#dbeafe" font-size="13" font-weight="600">Reyting</text>
        <circle cx="25" cy="274" r="7" fill="#ef4444"/>
        <text x="46" y="279" fill="#dbeafe" font-size="13" font-weight="600">Xatolar Sandig'i</text>
      </g>
      <circle cx="25" cy="324" r="7" fill="#fb7185"/>
      <text x="46" y="329" fill="#fff" font-size="13" font-weight="700">Do'kon</text>
      <g opacity="0.65">
        <circle cx="25" cy="374" r="7" fill="#94a3b8"/>
        <text x="46" y="379" fill="#dbeafe" font-size="13" font-weight="600">Profil</text>
      </g>
    </g>
    <g transform="translate(96 720)">
      <circle cx="24" cy="24" r="24" fill="url(#cool)"/>
      <text x="64" y="20" fill="#fff" font-family="Inter, Arial, sans-serif" font-size="15" font-weight="800">Ali Valiyev</text>
      <text x="64" y="42" fill="#94a3b8" font-family="Inter, Arial, sans-serif" font-size="13">Oquvchi</text>
    </g>
    <g transform="translate(358 96)" font-family="Inter, Arial, sans-serif">
      <text x="0" y="30" fill="#fff" font-size="28" font-weight="850">Sovg'alar Do'koni</text>
      <text x="0" y="58" fill="#94a3b8" font-size="15">Bilimingiz evaziga to'plagan tangalaringizni esdalik sovg'alarga almashtiring</text>
      <rect x="730" y="0" width="218" height="44" rx="14" fill="#fbbf24" fill-opacity="0.15" stroke="#fbbf24" stroke-opacity="0.3"/>
      <text x="754" y="28" fill="#fbbf24" font-size="15" font-weight="800">Sizning balansingiz: 1,250 🪙</text>
    </g>
    <g transform="translate(358 188)" font-family="Inter, Arial, sans-serif">
      <g>
        <rect width="298" height="300" rx="26" fill="#ffffff" fill-opacity="0.07" stroke="#ffffff" stroke-opacity="0.1"/>
        <rect x="24" y="24" width="250" height="132" rx="18" fill="#12141a" stroke="#ffffff" stroke-opacity="0.08"/>
        <text x="149" y="100" text-anchor="middle" font-size="52">📚</text>
        <text x="24" y="194" fill="#fff" font-size="18" font-weight="850">Matematika Kitobi</text>
        <text x="24" y="218" fill="#94a3b8" font-size="13">Prezident maktabiga mukammal tayyorlov</text>
        <text x="24" y="264" fill="#fbbf24" font-size="18" font-weight="850">500 Coins</text>
        <rect x="164" y="240" width="110" height="38" rx="12" fill="#fbbf24"/>
        <text x="195" y="264" fill="#000" font-size="14" font-weight="900">Sotib olish</text>
      </g>
      <g transform="translate(322 0)">
        <rect width="298" height="300" rx="26" fill="#ffffff" fill-opacity="0.07" stroke="#ffffff" stroke-opacity="0.1"/>
        <rect x="24" y="24" width="250" height="132" rx="18" fill="#12141a" stroke="#ffffff" stroke-opacity="0.08"/>
        <text x="149" y="100" text-anchor="middle" font-size="52">📓</text>
        <text x="24" y="194" fill="#fff" font-size="18" font-weight="850">Olympy Daftari</text>
        <text x="24" y="218" fill="#94a3b8" font-size="13">Premium sifatdagi logotipli yon daftar</text>
        <text x="24" y="264" fill="#fbbf24" font-size="18" font-weight="850">300 Coins</text>
        <rect x="164" y="240" width="110" height="38" rx="12" fill="#fbbf24"/>
        <text x="195" y="264" fill="#000" font-size="14" font-weight="900">Sotib olish</text>
      </g>
      <g transform="translate(644 0)">
        <rect width="298" height="300" rx="26" fill="#ffffff" fill-opacity="0.07" stroke="#ffffff" stroke-opacity="0.1"/>
        <rect x="24" y="24" width="250" height="132" rx="18" fill="#12141a" stroke="#ffffff" stroke-opacity="0.08"/>
        <text x="149" y="100" text-anchor="middle" font-size="52">🎨</text>
        <text x="24" y="194" fill="#fff" font-size="18" font-weight="850">IT Stikerlar jamlanmasi</text>
        <text x="24" y="218" fill="#94a3b8" font-size="13">Dasturchilar va o'quvchilar uchun ajoyib stikerlar</text>
        <text x="24" y="264" fill="#fbbf24" font-size="18" font-weight="850">100 Coins</text>
        <rect x="164" y="240" width="110" height="38" rx="12" fill="#fbbf24"/>
        <text x="195" y="264" fill="#000" font-size="14" font-weight="900">Sotib olish</text>
      </g>
    </g>
    <g transform="translate(358 512)" font-family="Inter, Arial, sans-serif">
      <rect width="958" height="110" rx="22" fill="#ffffff" fill-opacity="0.07" stroke="#ffffff" stroke-opacity="0.1"/>
      <rect x="24" y="24" width="62" height="62" rx="16" fill="url(#cool)" fill-opacity="0.12"/>
      <text x="55" y="66" text-anchor="middle" fill="#06b6d4" font-size="34">🪙</text>
      <text x="110" y="44" fill="#fff" font-size="18" font-weight="800">Tangalarni qanday to'plash mumkin?</text>
      <text x="110" y="70" fill="#94a3b8" font-size="14">Olimpiadalarda qatnashish (+20 tanga) va har bir to'g'ri topilgan savol uchun (+10 tanga) beriladi.</text>
    </g>
  </g>
</svg>
